<?xml version="1.0" standalone="no"?>
<!DOCTYPE svg PUBLIC "-//W3C//DTD SVG 20010904//EN"
 "http://www.w3.org/TR/2001/REC-SVG-20010904/DTD/svg10.dtd">
<svg version="1.0" xmlns="http://www.w3.org/2000/svg"
 width="1023.000000pt" height="184.000000pt" viewBox="0 0 1023.000000 184.000000"
 preserveAspectRatio="xMidYMid meet">

<g transform="translate(0.000000,184.000000) scale(0.100000,-0.100000)"
fill="#000000" stroke="none">
<path d="M0 881 l0 -881 5115 0 5115 0 0 650 c0 358 -3 650 -6 650 -3 0 -117
-59 -252 -132 -426 -227 -717 -359 -1026 -463 -394 -132 -649 -172 -1046 -162
-472 12 -784 83 -1449 333 -695 262 -907 317 -1231 318 -282 1 -471 -45 -985
-241 -587 -225 -722 -257 -1060 -258 -239 0 -335 13 -580 75 -295 75 -398 113
-1645 612 -509 204 -931 372 -937 375 -10 4 -13 -175 -13 -876z"/>
</g>
</svg>
